<svg xmlns="http://www.w3.org/2000/svg" xmlns:xlink="http://www.w3.org/1999/xlink" width="250" zoomAndPan="magnify" viewBox="0 0 187.5 37.5" height="50" preserveAspectRatio="xMidYMid meet" version="1.0"><defs><g/></defs><g fill="#000000" fill-opacity="1"><g transform="translate(1.887148, 26.075213)"><g><path d="M 7.0625 0.253906 C 10.277344 0.253906 12.894531 -1.671875 12.894531 -4.980469 C 12.894531 -11.414062 3.6875 -9.835938 3.6875 -14.347656 C 3.6875 -16.238281 5.234375 -17.152344 7 -17.152344 C 8.449219 -17.152344 9.648438 -16.554688 10.40625 -15.480469 L 11.980469 -16.804688 C 10.941406 -18.128906 9.113281 -19.171875 6.9375 -19.171875 C 4.035156 -19.171875 1.671875 -17.277344 1.671875 -14.1875 C 1.671875 -8.101562 10.878906 -9.617188 10.878906 -4.917969 C 10.878906 -2.902344 9.207031 -1.765625 7.09375 -1.765625 C 4.949219 -1.765625 3.40625 -2.933594 2.742188 -4.667969 L 0.914062 -3.59375 C 1.890625 -1.261719 4.257812 0.253906 7.0625 0.253906 Z M 7.0625 0.253906 "/></g></g></g><g fill="#000000" fill-opacity="1"><g transform="translate(29.091282, 26.075213)"><g><path d="M 2.460938 0 L 4.476562 0 L 4.476562 -18.917969 L 2.460938 -18.917969 Z M 2.460938 0 "/></g></g></g><g fill="#000000" fill-opacity="1"><g transform="translate(49.391562, 26.075213)"><g><path d="M 4.320312 -2.019531 L 4.320312 -18.917969 L 2.300781 -18.917969 L 2.300781 0 L 11.351562 0 L 11.351562 -2.019531 Z M 4.320312 -2.019531 "/></g></g></g><g fill="#000000" fill-opacity="1"><g transform="translate(74.420518, 26.075213)"><g><path d="M 12.800781 -16.964844 L 12.800781 -18.917969 L 2.460938 -18.917969 L 2.460938 0 L 12.800781 0 L 12.800781 -1.953125 L 4.476562 -1.953125 L 4.476562 -8.480469 L 11.730469 -8.480469 L 11.730469 -10.4375 L 4.476562 -10.4375 L 4.476562 -16.964844 Z M 12.800781 -16.964844 "/></g></g></g><g fill="#000000" fill-opacity="1"><g transform="translate(102.507344, 26.075213)"><g><path d="M 15.890625 -18.917969 L 15.890625 -3.375 L 4.195312 -18.917969 L 2.300781 -18.917969 L 2.300781 0 L 4.320312 0 L 4.320312 -15.542969 L 15.984375 0 L 17.878906 0 L 17.878906 -18.917969 Z M 15.890625 -18.917969 "/></g></g></g><g fill="#000000" fill-opacity="1"><g transform="translate(136.079419, 26.075213)"><g><path d="M 11.257812 0.253906 C 14.882812 0.253906 18.035156 -1.734375 19.707031 -4.667969 L 17.972656 -5.644531 C 16.679688 -3.3125 14.15625 -1.765625 11.257812 -1.765625 C 7 -1.765625 3.5625 -5.171875 3.5625 -9.460938 C 3.5625 -13.746094 7 -17.152344 11.257812 -17.152344 C 14.15625 -17.152344 16.679688 -15.609375 17.972656 -13.273438 L 19.707031 -14.25 C 18.035156 -17.183594 14.882812 -19.171875 11.257812 -19.171875 C 5.894531 -19.171875 1.546875 -14.820312 1.546875 -9.460938 C 1.546875 -4.097656 5.894531 0.253906 11.257812 0.253906 Z M 11.257812 0.253906 "/></g></g></g><g fill="#000000" fill-opacity="1"><g transform="translate(170.218937, 26.075213)"><g><path d="M 12.800781 -16.964844 L 12.800781 -18.917969 L 2.460938 -18.917969 L 2.460938 0 L 12.800781 0 L 12.800781 -1.953125 L 4.476562 -1.953125 L 4.476562 -8.480469 L 11.730469 -8.480469 L 11.730469 -10.4375 L 4.476562 -10.4375 L 4.476562 -16.964844 Z M 12.800781 -16.964844 "/></g></g></g></svg>