<svg xmlns="http://www.w3.org/2000/svg" xmlns:xlink="http://www.w3.org/1999/xlink" width="500" zoomAndPan="magnify" viewBox="0 0 375 74.999997" height="100" preserveAspectRatio="xMidYMid meet" version="1.0"><defs><g/></defs><g fill="#000000" fill-opacity="1"><g transform="translate(55.774511, 60.661806)"><g><path d="M 17.367188 0.621094 C 25.277344 0.621094 31.714844 -4.109375 31.714844 -12.25 C 31.714844 -28.070312 9.070312 -24.191406 9.070312 -35.28125 C 9.070312 -39.933594 12.871094 -42.183594 17.214844 -42.183594 C 20.78125 -42.183594 23.726562 -40.707031 25.589844 -38.074219 L 29.464844 -41.328125 C 26.90625 -44.585938 22.410156 -47.144531 17.058594 -47.144531 C 9.925781 -47.144531 4.109375 -42.492188 4.109375 -34.894531 C 4.109375 -19.929688 26.75 -23.648438 26.75 -12.097656 C 26.75 -7.132812 22.640625 -4.34375 17.445312 -4.34375 C 12.175781 -4.34375 8.375 -7.210938 6.746094 -11.476562 L 2.25 -8.839844 C 4.652344 -3.101562 10.46875 0.621094 17.367188 0.621094 Z M 17.367188 0.621094 "/></g></g></g><g fill="#000000" fill-opacity="1"><g transform="translate(89.734519, 60.661806)"><g><path d="M 6.046875 0 L 11.011719 0 L 11.011719 -46.523438 L 6.046875 -46.523438 Z M 6.046875 0 "/></g></g></g><g fill="#000000" fill-opacity="1"><g transform="translate(106.714517, 60.661806)"><g><path d="M 10.625 -4.960938 L 10.625 -46.523438 L 5.660156 -46.523438 L 5.660156 0 L 27.914062 0 L 27.914062 -4.960938 Z M 10.625 -4.960938 "/></g></g></g><g fill="#000000" fill-opacity="1"><g transform="translate(135.324653, 60.661806)"><g><path d="M 31.480469 -41.71875 L 31.480469 -46.523438 L 6.046875 -46.523438 L 6.046875 0 L 31.480469 0 L 31.480469 -4.808594 L 11.011719 -4.808594 L 11.011719 -20.859375 L 28.84375 -20.859375 L 28.84375 -25.664062 L 11.011719 -25.664062 L 11.011719 -41.71875 Z M 31.480469 -41.71875 "/></g></g></g><g fill="#000000" fill-opacity="1"><g transform="translate(171.455616, 60.661806)"><g><path d="M 39.082031 -46.523438 L 39.082031 -8.296875 L 10.3125 -46.523438 L 5.660156 -46.523438 L 5.660156 0 L 10.625 0 L 10.625 -38.226562 L 39.3125 0 L 43.964844 0 L 43.964844 -46.523438 Z M 39.082031 -46.523438 "/></g></g></g><g fill="#000000" fill-opacity="1"><g transform="translate(221.077537, 60.661806)"><g><path d="M 27.683594 0.621094 C 36.597656 0.621094 44.351562 -4.265625 48.460938 -11.476562 L 44.199219 -13.878906 C 41.019531 -8.140625 34.816406 -4.34375 27.683594 -4.34375 C 17.214844 -4.34375 8.761719 -12.714844 8.761719 -23.261719 C 8.761719 -33.808594 17.214844 -42.183594 27.683594 -42.183594 C 34.816406 -42.183594 41.019531 -38.382812 44.199219 -32.644531 L 48.460938 -35.046875 C 44.351562 -42.257812 36.597656 -47.144531 27.683594 -47.144531 C 14.5 -47.144531 3.800781 -36.445312 3.800781 -23.261719 C 3.800781 -10.082031 14.5 0.621094 27.683594 0.621094 Z M 27.683594 0.621094 "/></g></g></g><g fill="#000000" fill-opacity="1"><g transform="translate(272.095065, 60.661806)"><g><path d="M 31.480469 -41.71875 L 31.480469 -46.523438 L 6.046875 -46.523438 L 6.046875 0 L 31.480469 0 L 31.480469 -4.808594 L 11.011719 -4.808594 L 11.011719 -20.859375 L 28.84375 -20.859375 L 28.84375 -25.664062 L 11.011719 -25.664062 L 11.011719 -41.71875 Z M 31.480469 -41.71875 "/></g></g></g></svg>